<mxfile host="Electron" modified="2024-07-13T17:28:12.341Z" agent="Mozilla/5.0 (Windows NT 10.0; Win64; x64) AppleWebKit/537.36 (KHTML, like Gecko) draw.io/21.6.1 Chrome/112.0.5615.204 Electron/24.6.1 Safari/537.36" etag="_2ueJwOD4oNg5d8_TWeI" version="21.6.1" type="device">
  <diagram name="Seite-1" id="4nldZ2X44YXfPoI_JoEv">
    <mxGraphModel dx="775" dy="496" grid="1" gridSize="10" guides="1" tooltips="1" connect="1" arrows="1" fold="1" page="1" pageScale="1" pageWidth="1169" pageHeight="827" math="0" shadow="0">
      <root>
        <mxCell id="0" />
        <mxCell id="1" parent="0" />
        <mxCell id="vhCUdtXiWIf4BPjvFejv-14" value="Stage &lt;br style=&quot;font-size: 9px;&quot;&gt;process" style="rounded=0;whiteSpace=wrap;html=1;fontFamily=Helvetica;fontSize=9;fontColor=#000000;verticalAlign=top;fillColor=#CCCCCC;strokeColor=none;align=left;" parent="1" vertex="1">
          <mxGeometry x="300" y="680" width="60" height="140" as="geometry" />
        </mxCell>
        <mxCell id="vhCUdtXiWIf4BPjvFejv-13" value="Source Data" style="rounded=0;whiteSpace=wrap;html=1;fontFamily=Helvetica;fontSize=9;fontColor=#000000;verticalAlign=top;fillColor=#CCCCCC;strokeColor=none;align=left;" parent="1" vertex="1">
          <mxGeometry x="70" y="680" width="220" height="50" as="geometry" />
        </mxCell>
        <mxCell id="AOwtY-LI5ESdWI-Md5z0-16" style="edgeStyle=orthogonalEdgeStyle;shape=connector;rounded=1;jumpStyle=none;orthogonalLoop=1;jettySize=auto;html=1;entryX=0;entryY=0.5;entryDx=0;entryDy=0;labelBackgroundColor=default;strokeColor=default;strokeWidth=2;fontFamily=Helvetica;fontSize=11;fontColor=default;endArrow=none;endFill=0;opacity=40;" parent="1" source="AOwtY-LI5ESdWI-Md5z0-1" target="AOwtY-LI5ESdWI-Md5z0-2" edge="1">
          <mxGeometry relative="1" as="geometry" />
        </mxCell>
        <mxCell id="AOwtY-LI5ESdWI-Md5z0-1" value="AAA" style="strokeWidth=2;html=1;shape=mxgraph.flowchart.start_1;whiteSpace=wrap;strokeColor=none;fontColor=#ffffff;fillColor=#002C82;fontFamily=Helvetica;fontSize=11;verticalAlign=top;" parent="1" vertex="1">
          <mxGeometry x="120" y="60" width="100" height="60" as="geometry" />
        </mxCell>
        <mxCell id="AOwtY-LI5ESdWI-Md5z0-17" style="edgeStyle=orthogonalEdgeStyle;shape=connector;rounded=1;jumpStyle=none;orthogonalLoop=1;jettySize=auto;html=1;entryX=0;entryY=0.5;entryDx=0;entryDy=0;entryPerimeter=0;labelBackgroundColor=default;strokeColor=default;strokeWidth=2;fontFamily=Helvetica;fontSize=11;fontColor=default;endArrow=none;endFill=0;opacity=40;" parent="1" source="AOwtY-LI5ESdWI-Md5z0-2" target="AOwtY-LI5ESdWI-Md5z0-3" edge="1">
          <mxGeometry relative="1" as="geometry" />
        </mxCell>
        <mxCell id="vhCUdtXiWIf4BPjvFejv-76" style="edgeStyle=orthogonalEdgeStyle;shape=connector;rounded=1;jumpStyle=none;orthogonalLoop=1;jettySize=auto;html=1;labelBackgroundColor=default;strokeColor=default;fontFamily=Helvetica;fontSize=11;fontColor=default;endArrow=none;endFill=0;" parent="1" source="AOwtY-LI5ESdWI-Md5z0-2" target="vhCUdtXiWIf4BPjvFejv-73" edge="1">
          <mxGeometry relative="1" as="geometry" />
        </mxCell>
        <mxCell id="AOwtY-LI5ESdWI-Md5z0-2" value="AAA_BBB" style="verticalLabelPosition=middle;verticalAlign=top;html=1;shape=hexagon;perimeter=hexagonPerimeter2;arcSize=6;size=0.047619047619047616;fillColor=#cce5ff;strokeColor=#36393d;strokeWidth=2;labelPosition=center;align=center;" parent="1" vertex="1">
          <mxGeometry x="240" y="70" width="180" height="40" as="geometry" />
        </mxCell>
        <mxCell id="AOwtY-LI5ESdWI-Md5z0-3" value="BBB" style="strokeWidth=2;html=1;shape=mxgraph.flowchart.start_1;whiteSpace=wrap;strokeColor=none;fontColor=#ffffff;fillColor=#002C82;fontFamily=Helvetica;fontSize=11;verticalAlign=top;" parent="1" vertex="1">
          <mxGeometry x="440" y="60" width="100" height="60" as="geometry" />
        </mxCell>
        <mxCell id="AOwtY-LI5ESdWI-Md5z0-15" style="edgeStyle=orthogonalEdgeStyle;shape=connector;rounded=1;jumpStyle=none;orthogonalLoop=1;jettySize=auto;html=1;entryX=0.5;entryY=1;entryDx=0;entryDy=0;entryPerimeter=0;labelBackgroundColor=default;strokeColor=default;fontFamily=Helvetica;fontSize=11;fontColor=default;endArrow=none;endFill=0;" parent="1" source="AOwtY-LI5ESdWI-Md5z0-4" target="AOwtY-LI5ESdWI-Md5z0-1" edge="1">
          <mxGeometry relative="1" as="geometry" />
        </mxCell>
        <mxCell id="AOwtY-LI5ESdWI-Md5z0-4" value="AAA_P1" style="rounded=1;whiteSpace=wrap;html=1;strokeColor=#36393d;fillColor=#FFF3A8;strokeWidth=2;verticalAlign=bottom;" parent="1" vertex="1">
          <mxGeometry x="70" y="150" width="200" height="50" as="geometry" />
        </mxCell>
        <mxCell id="AOwtY-LI5ESdWI-Md5z0-6" value="HK A" style="rounded=0;whiteSpace=wrap;html=1;fontSize=10;" parent="1" vertex="1">
          <mxGeometry x="140" y="90" width="30" height="20" as="geometry" />
        </mxCell>
        <mxCell id="AOwtY-LI5ESdWI-Md5z0-7" value="HK B" style="rounded=0;whiteSpace=wrap;html=1;fontSize=10;" parent="1" vertex="1">
          <mxGeometry x="460" y="90" width="30" height="20" as="geometry" />
        </mxCell>
        <mxCell id="AOwtY-LI5ESdWI-Md5z0-8" value="BK A" style="rounded=0;whiteSpace=wrap;html=1;fontSize=10;" parent="1" vertex="1">
          <mxGeometry x="170" y="90" width="30" height="20" as="geometry" />
        </mxCell>
        <mxCell id="AOwtY-LI5ESdWI-Md5z0-9" value="BK B" style="rounded=0;whiteSpace=wrap;html=1;fontSize=10;" parent="1" vertex="1">
          <mxGeometry x="490" y="90" width="30" height="20" as="geometry" />
        </mxCell>
        <mxCell id="AOwtY-LI5ESdWI-Md5z0-10" value="HK A" style="rounded=0;whiteSpace=wrap;html=1;fontSize=10;" parent="1" vertex="1">
          <mxGeometry x="85" y="155" width="40" height="20" as="geometry" />
        </mxCell>
        <mxCell id="AOwtY-LI5ESdWI-Md5z0-11" value="HK A" style="rounded=0;whiteSpace=wrap;html=1;fontSize=10;" parent="1" vertex="1">
          <mxGeometry x="310" y="90" width="40" height="20" as="geometry" />
        </mxCell>
        <mxCell id="AOwtY-LI5ESdWI-Md5z0-12" value="HK B" style="rounded=0;whiteSpace=wrap;html=1;fontSize=10;" parent="1" vertex="1">
          <mxGeometry x="350" y="90" width="40" height="20" as="geometry" />
        </mxCell>
        <mxCell id="AOwtY-LI5ESdWI-Md5z0-18" value="LK AB" style="rounded=0;whiteSpace=wrap;html=1;fontSize=10;" parent="1" vertex="1">
          <mxGeometry x="260" y="90" width="40" height="20" as="geometry" />
        </mxCell>
        <mxCell id="AOwtY-LI5ESdWI-Md5z0-19" value="RH A" style="rounded=0;whiteSpace=wrap;html=1;fontSize=10;" parent="1" vertex="1">
          <mxGeometry x="130" y="155" width="40" height="20" as="geometry" />
        </mxCell>
        <mxCell id="vhCUdtXiWIf4BPjvFejv-11" style="edgeStyle=orthogonalEdgeStyle;shape=connector;rounded=1;jumpStyle=none;orthogonalLoop=1;jettySize=auto;html=1;dashed=1;dashPattern=1 1;labelBackgroundColor=default;strokeColor=#969696;strokeWidth=2;fontFamily=Helvetica;fontSize=11;fontColor=#C2C2C2;endArrow=classicThin;endFill=1;" parent="1" source="vhCUdtXiWIf4BPjvFejv-2" target="vhCUdtXiWIf4BPjvFejv-5" edge="1">
          <mxGeometry relative="1" as="geometry">
            <Array as="points">
              <mxPoint x="213" y="770" />
            </Array>
          </mxGeometry>
        </mxCell>
        <mxCell id="vhCUdtXiWIf4BPjvFejv-2" value="BK A" style="rounded=0;whiteSpace=wrap;html=1;fontSize=10;" parent="1" vertex="1">
          <mxGeometry x="200" y="700" width="40" height="20" as="geometry" />
        </mxCell>
        <mxCell id="vhCUdtXiWIf4BPjvFejv-10" style="edgeStyle=orthogonalEdgeStyle;shape=connector;rounded=1;jumpStyle=none;orthogonalLoop=1;jettySize=auto;html=1;dashed=1;dashPattern=1 1;labelBackgroundColor=default;strokeColor=#969696;strokeWidth=2;fontFamily=Helvetica;fontSize=11;fontColor=#C2C2C2;endArrow=classicThin;endFill=1;" parent="1" source="vhCUdtXiWIf4BPjvFejv-3" target="vhCUdtXiWIf4BPjvFejv-5" edge="1">
          <mxGeometry relative="1" as="geometry">
            <Array as="points">
              <mxPoint x="253" y="730" />
              <mxPoint x="253" y="730" />
              <mxPoint x="253" y="770" />
            </Array>
          </mxGeometry>
        </mxCell>
        <mxCell id="vhCUdtXiWIf4BPjvFejv-3" value="BK B" style="rounded=0;whiteSpace=wrap;html=1;fontSize=10;" parent="1" vertex="1">
          <mxGeometry x="240" y="700" width="40" height="20" as="geometry" />
        </mxCell>
        <mxCell id="vhCUdtXiWIf4BPjvFejv-5" value="LK AB" style="rounded=0;whiteSpace=wrap;html=1;fontSize=10;" parent="1" vertex="1">
          <mxGeometry x="310" y="760" width="40" height="20" as="geometry" />
        </mxCell>
        <mxCell id="vhCUdtXiWIf4BPjvFejv-15" value="Vlt Load" style="rounded=0;whiteSpace=wrap;html=1;fontFamily=Helvetica;fontSize=9;fontColor=#000000;verticalAlign=top;fillColor=#CCCCCC;strokeColor=none;align=left;" parent="1" vertex="1">
          <mxGeometry x="370" y="680" width="110" height="140" as="geometry" />
        </mxCell>
        <mxCell id="vhCUdtXiWIf4BPjvFejv-19" value="&amp;nbsp;A_C1" style="rounded=0;whiteSpace=wrap;html=1;fontSize=10;" parent="1" vertex="1">
          <mxGeometry x="182.5" y="155" width="40" height="20" as="geometry" />
        </mxCell>
        <mxCell id="vhCUdtXiWIf4BPjvFejv-20" value="&amp;nbsp;A_C2" style="rounded=0;whiteSpace=wrap;html=1;fontSize=10;" parent="1" vertex="1">
          <mxGeometry x="220" y="155" width="40" height="20" as="geometry" />
        </mxCell>
        <mxCell id="vhCUdtXiWIf4BPjvFejv-21" value="AAA" style="strokeWidth=2;html=1;shape=mxgraph.flowchart.start_1;whiteSpace=wrap;strokeColor=#002C82;fontColor=#ffffff;fillColor=#90A2E0;fontFamily=Helvetica;fontSize=9;verticalAlign=middle;dashed=1;" parent="1" vertex="1">
          <mxGeometry x="380" y="700" width="40" height="30" as="geometry" />
        </mxCell>
        <mxCell id="vhCUdtXiWIf4BPjvFejv-24" value="AAA_BBB" style="verticalLabelPosition=middle;verticalAlign=top;html=1;shape=hexagon;perimeter=hexagonPerimeter2;arcSize=6;size=0.047619047619047616;fillColor=#cce5ff;strokeColor=#36393d;strokeWidth=2;labelPosition=center;align=center;fontSize=9;" parent="1" vertex="1">
          <mxGeometry x="380" y="755" width="70" height="30" as="geometry" />
        </mxCell>
        <mxCell id="vhCUdtXiWIf4BPjvFejv-25" value="BBB" style="strokeWidth=2;html=1;shape=mxgraph.flowchart.start_1;whiteSpace=wrap;strokeColor=#002C82;fontColor=#ffffff;fillColor=#90A2E0;fontFamily=Helvetica;fontSize=9;verticalAlign=middle;dashed=1;" parent="1" vertex="1">
          <mxGeometry x="430" y="700" width="40" height="30" as="geometry" />
        </mxCell>
        <mxCell id="vhCUdtXiWIf4BPjvFejv-26" value="Stage &lt;br style=&quot;font-size: 9px;&quot;&gt;process" style="rounded=0;whiteSpace=wrap;html=1;fontFamily=Helvetica;fontSize=9;fontColor=#000000;verticalAlign=top;fillColor=#CCCCCC;strokeColor=none;align=left;" parent="1" vertex="1">
          <mxGeometry x="300" y="400" width="60" height="100" as="geometry" />
        </mxCell>
        <mxCell id="vhCUdtXiWIf4BPjvFejv-27" value="Source Data" style="rounded=0;whiteSpace=wrap;html=1;fontFamily=Helvetica;fontSize=9;fontColor=#000000;verticalAlign=top;fillColor=#CCCCCC;strokeColor=none;align=left;" parent="1" vertex="1">
          <mxGeometry x="70" y="400" width="220" height="50" as="geometry" />
        </mxCell>
        <mxCell id="vhCUdtXiWIf4BPjvFejv-37" value="Vlt Load" style="rounded=0;whiteSpace=wrap;html=1;fontFamily=Helvetica;fontSize=9;fontColor=#000000;verticalAlign=top;fillColor=#CCCCCC;strokeColor=none;align=left;" parent="1" vertex="1">
          <mxGeometry x="370" y="400" width="110" height="100" as="geometry" />
        </mxCell>
        <mxCell id="vhCUdtXiWIf4BPjvFejv-49" style="edgeStyle=elbowEdgeStyle;shape=connector;rounded=1;jumpStyle=none;orthogonalLoop=1;jettySize=auto;html=1;entryX=0;entryY=0.5;entryDx=0;entryDy=0;dashed=1;dashPattern=1 1;labelBackgroundColor=default;strokeColor=#969696;strokeWidth=2;fontFamily=Helvetica;fontSize=11;fontColor=#C2C2C2;endArrow=classicThin;endFill=1;" parent="1" source="vhCUdtXiWIf4BPjvFejv-38" target="vhCUdtXiWIf4BPjvFejv-40" edge="1">
          <mxGeometry relative="1" as="geometry">
            <Array as="points">
              <mxPoint x="131" y="460" />
            </Array>
          </mxGeometry>
        </mxCell>
        <mxCell id="vhCUdtXiWIf4BPjvFejv-38" value="&amp;nbsp;A_C1" style="rounded=0;whiteSpace=wrap;html=1;fontSize=10;" parent="1" vertex="1">
          <mxGeometry x="111.25" y="420" width="40" height="20" as="geometry" />
        </mxCell>
        <mxCell id="vhCUdtXiWIf4BPjvFejv-48" style="edgeStyle=elbowEdgeStyle;shape=connector;rounded=1;jumpStyle=none;orthogonalLoop=1;jettySize=auto;html=1;entryX=0;entryY=0.5;entryDx=0;entryDy=0;dashed=1;dashPattern=1 1;labelBackgroundColor=default;strokeColor=#969696;strokeWidth=2;fontFamily=Helvetica;fontSize=11;fontColor=#C2C2C2;endArrow=classicThin;endFill=1;" parent="1" source="vhCUdtXiWIf4BPjvFejv-39" target="vhCUdtXiWIf4BPjvFejv-40" edge="1">
          <mxGeometry relative="1" as="geometry">
            <Array as="points">
              <mxPoint x="170" y="460" />
            </Array>
          </mxGeometry>
        </mxCell>
        <mxCell id="vhCUdtXiWIf4BPjvFejv-39" value="&amp;nbsp;A_C2" style="rounded=0;whiteSpace=wrap;html=1;fontSize=10;" parent="1" vertex="1">
          <mxGeometry x="148.75" y="420" width="40" height="20" as="geometry" />
        </mxCell>
        <mxCell id="vhCUdtXiWIf4BPjvFejv-40" value="RH_A" style="rounded=0;whiteSpace=wrap;html=1;fontSize=10;" parent="1" vertex="1">
          <mxGeometry x="310" y="465" width="40" height="20" as="geometry" />
        </mxCell>
        <mxCell id="vhCUdtXiWIf4BPjvFejv-42" value="AAA_P1" style="rounded=1;whiteSpace=wrap;html=1;strokeColor=#36393d;fillColor=#FFF3A8;strokeWidth=2;verticalAlign=middle;fontSize=9;" parent="1" vertex="1">
          <mxGeometry x="385" y="465" width="60" height="20" as="geometry" />
        </mxCell>
        <mxCell id="vhCUdtXiWIf4BPjvFejv-47" value="HK A" style="rounded=0;whiteSpace=wrap;html=1;fontSize=10;" parent="1" vertex="1">
          <mxGeometry x="200" y="420" width="40" height="20" as="geometry" />
        </mxCell>
        <mxCell id="vhCUdtXiWIf4BPjvFejv-50" value="Stage &lt;br style=&quot;font-size: 9px;&quot;&gt;process" style="rounded=0;whiteSpace=wrap;html=1;fontFamily=Helvetica;fontSize=9;fontColor=#000000;verticalAlign=top;fillColor=#CCCCCC;strokeColor=none;align=left;" parent="1" vertex="1">
          <mxGeometry x="300" y="230" width="60" height="150" as="geometry" />
        </mxCell>
        <mxCell id="vhCUdtXiWIf4BPjvFejv-51" value="Source Data" style="rounded=0;whiteSpace=wrap;html=1;fontFamily=Helvetica;fontSize=9;fontColor=#000000;verticalAlign=top;fillColor=#CCCCCC;strokeColor=none;align=left;" parent="1" vertex="1">
          <mxGeometry x="70" y="230" width="210" height="50" as="geometry" />
        </mxCell>
        <mxCell id="vhCUdtXiWIf4BPjvFejv-52" style="edgeStyle=orthogonalEdgeStyle;shape=connector;rounded=1;jumpStyle=none;orthogonalLoop=1;jettySize=auto;html=1;dashed=1;dashPattern=1 1;labelBackgroundColor=default;strokeColor=#969696;strokeWidth=2;fontFamily=Helvetica;fontSize=11;fontColor=#C2C2C2;endArrow=classicThin;endFill=1;" parent="1" source="vhCUdtXiWIf4BPjvFejv-54" target="vhCUdtXiWIf4BPjvFejv-58" edge="1">
          <mxGeometry relative="1" as="geometry">
            <Array as="points">
              <mxPoint x="213" y="340" />
            </Array>
          </mxGeometry>
        </mxCell>
        <mxCell id="vhCUdtXiWIf4BPjvFejv-53" style="edgeStyle=orthogonalEdgeStyle;shape=connector;rounded=1;jumpStyle=none;orthogonalLoop=1;jettySize=auto;html=1;dashed=1;dashPattern=1 1;labelBackgroundColor=default;strokeColor=#969696;strokeWidth=2;fontFamily=Helvetica;fontSize=11;fontColor=#C2C2C2;endArrow=classicThin;endFill=1;" parent="1" source="vhCUdtXiWIf4BPjvFejv-54" target="vhCUdtXiWIf4BPjvFejv-59" edge="1">
          <mxGeometry relative="1" as="geometry">
            <Array as="points">
              <mxPoint x="213" y="320" />
            </Array>
          </mxGeometry>
        </mxCell>
        <mxCell id="vhCUdtXiWIf4BPjvFejv-54" value="BK A" style="rounded=0;whiteSpace=wrap;html=1;fontSize=10;" parent="1" vertex="1">
          <mxGeometry x="192.5" y="250" width="40" height="20" as="geometry" />
        </mxCell>
        <mxCell id="vhCUdtXiWIf4BPjvFejv-55" style="edgeStyle=orthogonalEdgeStyle;shape=connector;rounded=1;jumpStyle=none;orthogonalLoop=1;jettySize=auto;html=1;dashed=1;dashPattern=1 1;labelBackgroundColor=default;strokeColor=#969696;strokeWidth=2;fontFamily=Helvetica;fontSize=11;fontColor=#C2C2C2;endArrow=classicThin;endFill=1;" parent="1" source="vhCUdtXiWIf4BPjvFejv-57" target="vhCUdtXiWIf4BPjvFejv-59" edge="1">
          <mxGeometry relative="1" as="geometry">
            <Array as="points">
              <mxPoint x="253" y="280" />
              <mxPoint x="253" y="280" />
              <mxPoint x="253" y="320" />
            </Array>
          </mxGeometry>
        </mxCell>
        <mxCell id="vhCUdtXiWIf4BPjvFejv-56" style="edgeStyle=orthogonalEdgeStyle;shape=connector;rounded=1;jumpStyle=none;orthogonalLoop=1;jettySize=auto;html=1;dashed=1;dashPattern=1 1;labelBackgroundColor=default;strokeColor=#969696;strokeWidth=2;fontFamily=Helvetica;fontSize=11;fontColor=#C2C2C2;endArrow=classicThin;endFill=1;" parent="1" source="vhCUdtXiWIf4BPjvFejv-57" target="vhCUdtXiWIf4BPjvFejv-60" edge="1">
          <mxGeometry relative="1" as="geometry">
            <Array as="points">
              <mxPoint x="253" y="300" />
            </Array>
          </mxGeometry>
        </mxCell>
        <mxCell id="vhCUdtXiWIf4BPjvFejv-57" value="BK B" style="rounded=0;whiteSpace=wrap;html=1;fontSize=10;" parent="1" vertex="1">
          <mxGeometry x="232.5" y="250" width="40" height="20" as="geometry" />
        </mxCell>
        <mxCell id="vhCUdtXiWIf4BPjvFejv-58" value="HK A" style="rounded=0;whiteSpace=wrap;html=1;fontSize=10;" parent="1" vertex="1">
          <mxGeometry x="310" y="330" width="40" height="20" as="geometry" />
        </mxCell>
        <mxCell id="vhCUdtXiWIf4BPjvFejv-59" value="LK AB" style="rounded=0;whiteSpace=wrap;html=1;fontSize=10;" parent="1" vertex="1">
          <mxGeometry x="310" y="310" width="40" height="20" as="geometry" />
        </mxCell>
        <mxCell id="vhCUdtXiWIf4BPjvFejv-60" value="HK B" style="rounded=0;whiteSpace=wrap;html=1;fontSize=10;" parent="1" vertex="1">
          <mxGeometry x="310" y="290" width="40" height="20" as="geometry" />
        </mxCell>
        <mxCell id="vhCUdtXiWIf4BPjvFejv-61" value="Vlt Load" style="rounded=0;whiteSpace=wrap;html=1;fontFamily=Helvetica;fontSize=9;fontColor=#000000;verticalAlign=top;fillColor=#CCCCCC;strokeColor=none;align=left;" parent="1" vertex="1">
          <mxGeometry x="370" y="230" width="110" height="150" as="geometry" />
        </mxCell>
        <mxCell id="vhCUdtXiWIf4BPjvFejv-62" style="edgeStyle=orthogonalEdgeStyle;shape=connector;rounded=1;jumpStyle=none;orthogonalLoop=1;jettySize=auto;html=1;entryX=0;entryY=0.5;entryDx=0;entryDy=0;dashed=1;dashPattern=1 1;labelBackgroundColor=default;strokeColor=#969696;strokeWidth=2;fontFamily=Helvetica;fontSize=11;fontColor=#C2C2C2;endArrow=classicThin;endFill=1;" parent="1" source="vhCUdtXiWIf4BPjvFejv-63" target="vhCUdtXiWIf4BPjvFejv-66" edge="1">
          <mxGeometry relative="1" as="geometry">
            <Array as="points">
              <mxPoint x="131" y="360" />
            </Array>
          </mxGeometry>
        </mxCell>
        <mxCell id="vhCUdtXiWIf4BPjvFejv-63" value="&amp;nbsp;A_C1" style="rounded=0;whiteSpace=wrap;html=1;fontSize=10;" parent="1" vertex="1">
          <mxGeometry x="111.25" y="250" width="40" height="20" as="geometry" />
        </mxCell>
        <mxCell id="vhCUdtXiWIf4BPjvFejv-64" style="edgeStyle=orthogonalEdgeStyle;shape=connector;rounded=1;jumpStyle=none;orthogonalLoop=1;jettySize=auto;html=1;entryX=0;entryY=0.5;entryDx=0;entryDy=0;dashed=1;dashPattern=1 1;labelBackgroundColor=default;strokeColor=#969696;strokeWidth=2;fontFamily=Helvetica;fontSize=11;fontColor=#C2C2C2;endArrow=classicThin;endFill=1;" parent="1" source="vhCUdtXiWIf4BPjvFejv-65" target="vhCUdtXiWIf4BPjvFejv-66" edge="1">
          <mxGeometry relative="1" as="geometry">
            <Array as="points">
              <mxPoint x="170" y="360" />
            </Array>
          </mxGeometry>
        </mxCell>
        <mxCell id="vhCUdtXiWIf4BPjvFejv-65" value="&amp;nbsp;A_C2" style="rounded=0;whiteSpace=wrap;html=1;fontSize=10;" parent="1" vertex="1">
          <mxGeometry x="148.75" y="250" width="40" height="20" as="geometry" />
        </mxCell>
        <mxCell id="vhCUdtXiWIf4BPjvFejv-66" value="RH_A" style="rounded=0;whiteSpace=wrap;html=1;fontSize=10;" parent="1" vertex="1">
          <mxGeometry x="310" y="350" width="40" height="20" as="geometry" />
        </mxCell>
        <mxCell id="vhCUdtXiWIf4BPjvFejv-67" value="AAA" style="strokeWidth=2;html=1;shape=mxgraph.flowchart.start_1;whiteSpace=wrap;strokeColor=none;fontColor=#ffffff;fillColor=#002C82;fontFamily=Helvetica;fontSize=9;verticalAlign=middle;" parent="1" vertex="1">
          <mxGeometry x="380" y="250" width="40" height="30" as="geometry" />
        </mxCell>
        <mxCell id="vhCUdtXiWIf4BPjvFejv-68" value="AAA_P1" style="rounded=1;whiteSpace=wrap;html=1;strokeColor=#36393d;fillColor=#FFF3A8;strokeWidth=2;verticalAlign=middle;fontSize=9;" parent="1" vertex="1">
          <mxGeometry x="380" y="290" width="60" height="20" as="geometry" />
        </mxCell>
        <mxCell id="vhCUdtXiWIf4BPjvFejv-69" value="AAA_BBB" style="verticalLabelPosition=middle;verticalAlign=top;html=1;shape=hexagon;perimeter=hexagonPerimeter2;arcSize=6;size=0.047619047619047616;fillColor=#cce5ff;strokeColor=#36393d;strokeWidth=2;labelPosition=center;align=center;fontSize=9;" parent="1" vertex="1">
          <mxGeometry x="380" y="320" width="70" height="30" as="geometry" />
        </mxCell>
        <mxCell id="vhCUdtXiWIf4BPjvFejv-70" value="BBB" style="strokeWidth=2;html=1;shape=mxgraph.flowchart.start_1;whiteSpace=wrap;strokeColor=none;fontColor=#ffffff;fillColor=#002C82;fontFamily=Helvetica;fontSize=9;verticalAlign=middle;" parent="1" vertex="1">
          <mxGeometry x="430" y="250" width="40" height="30" as="geometry" />
        </mxCell>
        <mxCell id="vhCUdtXiWIf4BPjvFejv-71" value="HK B" style="rounded=0;whiteSpace=wrap;html=1;fontSize=10;" parent="1" vertex="1">
          <mxGeometry x="120" y="700" width="40" height="20" as="geometry" />
        </mxCell>
        <mxCell id="vhCUdtXiWIf4BPjvFejv-72" value="HK A" style="rounded=0;whiteSpace=wrap;html=1;fontSize=10;" parent="1" vertex="1">
          <mxGeometry x="80" y="700" width="40" height="20" as="geometry" />
        </mxCell>
        <mxCell id="vhCUdtXiWIf4BPjvFejv-73" value="AAA_BBB_P1" style="rounded=1;whiteSpace=wrap;html=1;strokeColor=#36393d;fillColor=#FFF3A8;strokeWidth=2;verticalAlign=bottom;" parent="1" vertex="1">
          <mxGeometry x="280" y="140" width="100" height="50" as="geometry" />
        </mxCell>
        <mxCell id="vhCUdtXiWIf4BPjvFejv-74" value="&amp;nbsp;AB_C1" style="rounded=0;whiteSpace=wrap;html=1;fontSize=10;" parent="1" vertex="1">
          <mxGeometry x="330" y="150" width="40" height="20" as="geometry" />
        </mxCell>
        <mxCell id="vhCUdtXiWIf4BPjvFejv-75" value="RH AB" style="rounded=0;whiteSpace=wrap;html=1;fontSize=10;" parent="1" vertex="1">
          <mxGeometry x="290" y="150" width="40" height="20" as="geometry" />
        </mxCell>
        <mxCell id="vhCUdtXiWIf4BPjvFejv-79" style="edgeStyle=orthogonalEdgeStyle;shape=connector;rounded=1;jumpStyle=none;orthogonalLoop=1;jettySize=auto;html=1;entryX=0;entryY=0.5;entryDx=0;entryDy=0;dashed=1;dashPattern=1 1;labelBackgroundColor=default;strokeColor=#969696;strokeWidth=2;fontFamily=Helvetica;fontSize=11;fontColor=#C2C2C2;endArrow=classicThin;endFill=1;" parent="1" source="vhCUdtXiWIf4BPjvFejv-77" target="vhCUdtXiWIf4BPjvFejv-78" edge="1">
          <mxGeometry relative="1" as="geometry">
            <Array as="points">
              <mxPoint x="180" y="800" />
            </Array>
          </mxGeometry>
        </mxCell>
        <mxCell id="vhCUdtXiWIf4BPjvFejv-77" value="&amp;nbsp;AB_C1" style="rounded=0;whiteSpace=wrap;html=1;fontSize=10;" parent="1" vertex="1">
          <mxGeometry x="160" y="700" width="40" height="20" as="geometry" />
        </mxCell>
        <mxCell id="vhCUdtXiWIf4BPjvFejv-78" value="RH AB" style="rounded=0;whiteSpace=wrap;html=1;fontSize=10;" parent="1" vertex="1">
          <mxGeometry x="310" y="790" width="40" height="20" as="geometry" />
        </mxCell>
        <mxCell id="vhCUdtXiWIf4BPjvFejv-80" value="AAA_BBB_P1" style="rounded=1;whiteSpace=wrap;html=1;strokeColor=#36393d;fillColor=#FFF3A8;strokeWidth=2;verticalAlign=middle;fontSize=9;" parent="1" vertex="1">
          <mxGeometry x="380" y="790" width="70" height="20" as="geometry" />
        </mxCell>
        <mxCell id="vhCUdtXiWIf4BPjvFejv-81" value="Stage &lt;br style=&quot;font-size: 9px;&quot;&gt;process" style="rounded=0;whiteSpace=wrap;html=1;fontFamily=Helvetica;fontSize=9;fontColor=#000000;verticalAlign=top;fillColor=#CCCCCC;strokeColor=none;align=left;" parent="1" vertex="1">
          <mxGeometry x="300" y="520" width="60" height="140" as="geometry" />
        </mxCell>
        <mxCell id="vhCUdtXiWIf4BPjvFejv-82" value="Source Data" style="rounded=0;whiteSpace=wrap;html=1;fontFamily=Helvetica;fontSize=9;fontColor=#000000;verticalAlign=top;fillColor=#CCCCCC;strokeColor=none;align=left;" parent="1" vertex="1">
          <mxGeometry x="70" y="520" width="220" height="50" as="geometry" />
        </mxCell>
        <mxCell id="vhCUdtXiWIf4BPjvFejv-88" value="Vlt Load" style="rounded=0;whiteSpace=wrap;html=1;fontFamily=Helvetica;fontSize=9;fontColor=#000000;verticalAlign=top;fillColor=#CCCCCC;strokeColor=none;align=left;" parent="1" vertex="1">
          <mxGeometry x="370" y="520" width="110" height="140" as="geometry" />
        </mxCell>
        <mxCell id="vhCUdtXiWIf4BPjvFejv-94" style="edgeStyle=orthogonalEdgeStyle;shape=connector;rounded=1;jumpStyle=none;orthogonalLoop=1;jettySize=auto;html=1;entryX=0;entryY=0.5;entryDx=0;entryDy=0;dashed=1;dashPattern=1 1;labelBackgroundColor=default;strokeColor=#969696;strokeWidth=2;fontFamily=Helvetica;fontSize=11;fontColor=#C2C2C2;endArrow=classicThin;endFill=1;" parent="1" source="vhCUdtXiWIf4BPjvFejv-95" target="vhCUdtXiWIf4BPjvFejv-96" edge="1">
          <mxGeometry relative="1" as="geometry">
            <Array as="points">
              <mxPoint x="210" y="620" />
            </Array>
          </mxGeometry>
        </mxCell>
        <mxCell id="vhCUdtXiWIf4BPjvFejv-95" value="&amp;nbsp;AB_C1" style="rounded=0;whiteSpace=wrap;html=1;fontSize=10;" parent="1" vertex="1">
          <mxGeometry x="187.5" y="540" width="40" height="20" as="geometry" />
        </mxCell>
        <mxCell id="vhCUdtXiWIf4BPjvFejv-96" value="RH AB" style="rounded=0;whiteSpace=wrap;html=1;fontSize=10;" parent="1" vertex="1">
          <mxGeometry x="310" y="610" width="40" height="20" as="geometry" />
        </mxCell>
        <mxCell id="vhCUdtXiWIf4BPjvFejv-97" value="AAA_BBB_P1" style="rounded=1;whiteSpace=wrap;html=1;strokeColor=#36393d;fillColor=#FFF3A8;strokeWidth=2;verticalAlign=middle;fontSize=9;" parent="1" vertex="1">
          <mxGeometry x="380" y="610" width="70" height="20" as="geometry" />
        </mxCell>
        <mxCell id="vhCUdtXiWIf4BPjvFejv-98" value="LK AB" style="rounded=0;whiteSpace=wrap;html=1;fontSize=10;" parent="1" vertex="1">
          <mxGeometry x="230" y="540" width="40" height="20" as="geometry" />
        </mxCell>
        <mxCell id="vhCUdtXiWIf4BPjvFejv-99" value="Hubs must be described here to declare the business key members for assembling the LK.&lt;br&gt;There is no need to load them, since only known HK can be in the source" style="text;html=1;strokeColor=none;fillColor=none;align=center;verticalAlign=middle;whiteSpace=wrap;rounded=0;fontSize=12;fontFamily=Helvetica;fontColor=#000000;" parent="1" vertex="1">
          <mxGeometry x="490" y="680" width="130" height="150" as="geometry" />
        </mxCell>
        <mxCell id="kh0wWIFjqe9-NFcpJnxV-1" value="Stage &lt;br style=&quot;font-size: 9px;&quot;&gt;process" style="rounded=0;whiteSpace=wrap;html=1;fontFamily=Helvetica;fontSize=9;fontColor=#000000;verticalAlign=top;fillColor=#CCCCCC;strokeColor=none;align=left;" vertex="1" parent="1">
          <mxGeometry x="300" y="840" width="60" height="140" as="geometry" />
        </mxCell>
        <mxCell id="kh0wWIFjqe9-NFcpJnxV-2" value="Source Data" style="rounded=0;whiteSpace=wrap;html=1;fontFamily=Helvetica;fontSize=9;fontColor=#000000;verticalAlign=top;fillColor=#CCCCCC;strokeColor=none;align=left;" vertex="1" parent="1">
          <mxGeometry x="70" y="840" width="220" height="70" as="geometry" />
        </mxCell>
        <mxCell id="kh0wWIFjqe9-NFcpJnxV-3" style="edgeStyle=orthogonalEdgeStyle;shape=connector;rounded=1;jumpStyle=none;orthogonalLoop=1;jettySize=auto;html=1;dashed=1;dashPattern=1 1;labelBackgroundColor=default;strokeColor=#969696;strokeWidth=2;fontFamily=Helvetica;fontSize=11;fontColor=#C2C2C2;endArrow=classicThin;endFill=1;" edge="1" source="kh0wWIFjqe9-NFcpJnxV-4" target="kh0wWIFjqe9-NFcpJnxV-7" parent="1">
          <mxGeometry relative="1" as="geometry">
            <Array as="points">
              <mxPoint x="235" y="930" />
            </Array>
          </mxGeometry>
        </mxCell>
        <mxCell id="kh0wWIFjqe9-NFcpJnxV-4" value="BK A" style="rounded=0;whiteSpace=wrap;html=1;fontSize=10;" vertex="1" parent="1">
          <mxGeometry x="220" y="860" width="30" height="20" as="geometry" />
        </mxCell>
        <mxCell id="kh0wWIFjqe9-NFcpJnxV-5" style="edgeStyle=orthogonalEdgeStyle;shape=connector;rounded=1;jumpStyle=none;orthogonalLoop=1;jettySize=auto;html=1;dashed=1;dashPattern=1 1;labelBackgroundColor=default;strokeColor=#969696;strokeWidth=2;fontFamily=Helvetica;fontSize=11;fontColor=#C2C2C2;endArrow=classicThin;endFill=1;" edge="1" source="kh0wWIFjqe9-NFcpJnxV-6" target="kh0wWIFjqe9-NFcpJnxV-7" parent="1">
          <mxGeometry relative="1" as="geometry">
            <Array as="points">
              <mxPoint x="265" y="930" />
            </Array>
          </mxGeometry>
        </mxCell>
        <mxCell id="kh0wWIFjqe9-NFcpJnxV-6" value="BK B" style="rounded=0;whiteSpace=wrap;html=1;fontSize=10;" vertex="1" parent="1">
          <mxGeometry x="250" y="860" width="30" height="20" as="geometry" />
        </mxCell>
        <mxCell id="kh0wWIFjqe9-NFcpJnxV-7" value="LK AB" style="rounded=0;whiteSpace=wrap;html=1;fontSize=10;" vertex="1" parent="1">
          <mxGeometry x="310" y="920" width="40" height="20" as="geometry" />
        </mxCell>
        <mxCell id="kh0wWIFjqe9-NFcpJnxV-8" value="Vlt Load" style="rounded=0;whiteSpace=wrap;html=1;fontFamily=Helvetica;fontSize=9;fontColor=#000000;verticalAlign=top;fillColor=#CCCCCC;strokeColor=none;align=left;" vertex="1" parent="1">
          <mxGeometry x="370" y="840" width="110" height="140" as="geometry" />
        </mxCell>
        <mxCell id="kh0wWIFjqe9-NFcpJnxV-9" value="AAA" style="strokeWidth=2;html=1;shape=mxgraph.flowchart.start_1;whiteSpace=wrap;strokeColor=#002C82;fontColor=#ffffff;fillColor=#90A2E0;fontFamily=Helvetica;fontSize=9;verticalAlign=middle;dashed=1;" vertex="1" parent="1">
          <mxGeometry x="380" y="860" width="40" height="30" as="geometry" />
        </mxCell>
        <mxCell id="kh0wWIFjqe9-NFcpJnxV-10" value="AAA_BBB&lt;br&gt;(AB_DC1)" style="verticalLabelPosition=middle;verticalAlign=top;html=1;shape=hexagon;perimeter=hexagonPerimeter2;arcSize=6;size=0.047619047619047616;fillColor=#cce5ff;strokeColor=#36393d;strokeWidth=2;labelPosition=center;align=center;fontSize=9;" vertex="1" parent="1">
          <mxGeometry x="380" y="915" width="70" height="30" as="geometry" />
        </mxCell>
        <mxCell id="kh0wWIFjqe9-NFcpJnxV-11" value="BBB" style="strokeWidth=2;html=1;shape=mxgraph.flowchart.start_1;whiteSpace=wrap;strokeColor=#002C82;fontColor=#ffffff;fillColor=#90A2E0;fontFamily=Helvetica;fontSize=9;verticalAlign=middle;dashed=1;" vertex="1" parent="1">
          <mxGeometry x="430" y="860" width="40" height="30" as="geometry" />
        </mxCell>
        <mxCell id="kh0wWIFjqe9-NFcpJnxV-12" value="HK B" style="rounded=0;whiteSpace=wrap;html=1;fontSize=10;" vertex="1" parent="1">
          <mxGeometry x="90" y="880" width="40" height="20" as="geometry" />
        </mxCell>
        <mxCell id="kh0wWIFjqe9-NFcpJnxV-13" value="HK A" style="rounded=0;whiteSpace=wrap;html=1;fontSize=10;" vertex="1" parent="1">
          <mxGeometry x="90" y="860" width="40" height="20" as="geometry" />
        </mxCell>
        <mxCell id="kh0wWIFjqe9-NFcpJnxV-14" style="edgeStyle=orthogonalEdgeStyle;shape=connector;rounded=1;jumpStyle=none;orthogonalLoop=1;jettySize=auto;html=1;entryX=0;entryY=0.5;entryDx=0;entryDy=0;dashed=1;dashPattern=1 1;labelBackgroundColor=default;strokeColor=#969696;strokeWidth=2;fontFamily=Helvetica;fontSize=11;fontColor=#C2C2C2;endArrow=classicThin;endFill=1;" edge="1" source="kh0wWIFjqe9-NFcpJnxV-15" target="kh0wWIFjqe9-NFcpJnxV-16" parent="1">
          <mxGeometry relative="1" as="geometry">
            <Array as="points">
              <mxPoint x="160" y="960" />
            </Array>
          </mxGeometry>
        </mxCell>
        <mxCell id="kh0wWIFjqe9-NFcpJnxV-15" value="&amp;nbsp;AB_C1" style="rounded=0;whiteSpace=wrap;html=1;fontSize=10;" vertex="1" parent="1">
          <mxGeometry x="130" y="860" width="40" height="20" as="geometry" />
        </mxCell>
        <mxCell id="kh0wWIFjqe9-NFcpJnxV-16" value="RH AB" style="rounded=0;whiteSpace=wrap;html=1;fontSize=10;" vertex="1" parent="1">
          <mxGeometry x="310" y="950" width="40" height="20" as="geometry" />
        </mxCell>
        <mxCell id="kh0wWIFjqe9-NFcpJnxV-17" value="AAA_BBB_P1" style="rounded=1;whiteSpace=wrap;html=1;strokeColor=#36393d;fillColor=#FFF3A8;strokeWidth=2;verticalAlign=middle;fontSize=9;" vertex="1" parent="1">
          <mxGeometry x="380" y="950" width="70" height="20" as="geometry" />
        </mxCell>
        <mxCell id="kh0wWIFjqe9-NFcpJnxV-18" value="Hubs must be described here to declare the business key members for assembling the LK.&lt;br&gt;There is no need to load them, since only known HK can be in the source" style="text;html=1;strokeColor=none;fillColor=none;align=center;verticalAlign=middle;whiteSpace=wrap;rounded=0;fontSize=12;fontFamily=Helvetica;fontColor=#000000;" vertex="1" parent="1">
          <mxGeometry x="490" y="840" width="130" height="150" as="geometry" />
        </mxCell>
        <mxCell id="kh0wWIFjqe9-NFcpJnxV-20" style="edgeStyle=orthogonalEdgeStyle;shape=connector;rounded=1;jumpStyle=none;orthogonalLoop=1;jettySize=auto;html=1;entryX=0;entryY=0.5;entryDx=0;entryDy=0;dashed=1;dashPattern=1 1;labelBackgroundColor=default;strokeColor=#969696;strokeWidth=2;fontFamily=Helvetica;fontSize=11;fontColor=#C2C2C2;endArrow=classicThin;endFill=1;" edge="1" parent="1" source="kh0wWIFjqe9-NFcpJnxV-19" target="kh0wWIFjqe9-NFcpJnxV-7">
          <mxGeometry relative="1" as="geometry">
            <Array as="points">
              <mxPoint x="195" y="930" />
            </Array>
          </mxGeometry>
        </mxCell>
        <mxCell id="kh0wWIFjqe9-NFcpJnxV-19" value="AB_DC1" style="rounded=0;whiteSpace=wrap;html=1;fontSize=10;" vertex="1" parent="1">
          <mxGeometry x="170" y="860" width="50" height="20" as="geometry" />
        </mxCell>
        <mxCell id="kh0wWIFjqe9-NFcpJnxV-21" value="t1020" style="text;html=1;strokeColor=none;fillColor=none;align=center;verticalAlign=middle;whiteSpace=wrap;rounded=0;fontSize=11;fontFamily=Helvetica;fontColor=#000000;" vertex="1" parent="1">
          <mxGeometry x="80" y="467.5" width="50" height="15" as="geometry" />
        </mxCell>
        <mxCell id="kh0wWIFjqe9-NFcpJnxV-22" value="t1020" style="text;html=1;strokeColor=none;fillColor=none;align=center;verticalAlign=middle;whiteSpace=wrap;rounded=0;fontSize=11;fontFamily=Helvetica;fontColor=#000000;" vertex="1" parent="1">
          <mxGeometry x="80" y="582.5" width="50" height="15" as="geometry" />
        </mxCell>
        <mxCell id="kh0wWIFjqe9-NFcpJnxV-23" value="t1021" style="text;html=1;strokeColor=none;fillColor=none;align=center;verticalAlign=middle;whiteSpace=wrap;rounded=0;fontSize=11;fontFamily=Helvetica;fontColor=#000000;" vertex="1" parent="1">
          <mxGeometry x="75" y="742.5" width="50" height="15" as="geometry" />
        </mxCell>
        <mxCell id="kh0wWIFjqe9-NFcpJnxV-24" value="t1028" style="text;html=1;strokeColor=none;fillColor=none;align=center;verticalAlign=middle;whiteSpace=wrap;rounded=0;fontSize=11;fontFamily=Helvetica;fontColor=#000000;" vertex="1" parent="1">
          <mxGeometry x="80" y="920" width="50" height="15" as="geometry" />
        </mxCell>
        <mxCell id="kh0wWIFjqe9-NFcpJnxV-25" value="t1022" style="text;html=1;strokeColor=none;fillColor=none;align=center;verticalAlign=middle;whiteSpace=wrap;rounded=0;fontSize=11;fontFamily=Helvetica;fontColor=#000000;" vertex="1" parent="1">
          <mxGeometry x="80" y="482.5" width="50" height="15" as="geometry" />
        </mxCell>
        <mxCell id="kh0wWIFjqe9-NFcpJnxV-26" value="t1023" style="text;html=1;strokeColor=none;fillColor=none;align=center;verticalAlign=middle;whiteSpace=wrap;rounded=0;fontSize=11;fontFamily=Helvetica;fontColor=#000000;" vertex="1" parent="1">
          <mxGeometry x="80" y="600" width="50" height="15" as="geometry" />
        </mxCell>
        <mxCell id="kh0wWIFjqe9-NFcpJnxV-27" value="t1023" style="text;html=1;strokeColor=none;fillColor=none;align=center;verticalAlign=middle;whiteSpace=wrap;rounded=0;fontSize=11;fontFamily=Helvetica;fontColor=#000000;" vertex="1" parent="1">
          <mxGeometry x="75" y="762.5" width="50" height="15" as="geometry" />
        </mxCell>
      </root>
    </mxGraphModel>
  </diagram>
</mxfile>
